<svg xmlns="http://www.w3.org/2000/svg" width="87" height="35" viewBox="0 0 87 35">
  <g fill="#FFF">
    <polygon points=".031 .02 9 .02 9 34.548 .031 34.548"/>
    <path d="M28.1285068.0198548247L26.0511948 16.1501029 24.7661547 7.37860239C24.3914927 4.56332482 24.0332185 2.1102206 23.6913323.0198548247L12.0626802.0198548247 12.0626802 34.5475369 19.9187168 34.5475369 19.9469719 11.74966 23.2533789 34.5475369 28.8490108 34.5475369 31.9858874 11.2421992 32.0141425 34.5475369 39.8453146 34.5475369 39.8453146.0198548247 28.1285068.0198548247zM53.871691 6.2337074C54.226066 6.43883913 54.4532366 6.7626421 54.5521293 7.20172572 54.651022 7.64193954 54.7013161 8.64216863 54.7013161 10.2029781L54.7013161 23.5885297C54.7013161 25.8873613 54.5521293 27.2950284 54.254321 27.8126611 53.9564562 28.3314239 53.1625455 28.5896752 51.8735497 28.5896752L51.8735497 5.92516215C52.8505532 5.92516215 53.5173726 6.02801057 53.871691 6.2337074zM53.7790144 34.5475369C55.9275856 34.5475369 57.5357506 34.4306175 58.6038483 34.196044 59.6713809 33.9620921 60.5675749 33.5500768 61.294295 32.9612979 62.0198849 32.372406 62.528476 31.5564564 62.8206333 30.5120929 63.1122255 29.4695377 63.2856551 27.3995156 63.2856551 24.3050215L63.2856551 12.1790804C63.2856551 8.91336068 63.1579422 6.72359361 62.9590831 5.60921408 62.7596024 4.49539966 62.2617482 3.48386855 61.4643905 2.57518585 60.6675978 1.66650315 59.5034894 1.01381129 57.9731954.61654516 56.443523.219279031 53.9457193.0197983146 49.604612.0197983146L42.9126838.0197983146 42.9126838 34.5475369 53.7790144 34.5474804 53.7790144 34.5475369zM78.0060322 26.1693468C78.0060322 27.840351 77.9229623 28.89596 77.7574442 29.3350436 77.5913044 29.7746923 76.8691051 29.9956469 76.3215221 29.9956469 75.7875015 29.9956469 75.4314877 29.783734 75.2506554 29.3582128 75.0704446 28.9332567 74.9810456 27.9630345 74.9810456 26.4463029L74.9810456 17.3215576C74.9810456 15.748316 75.0601597 14.7678654 75.2189532 14.3773805 75.377238 13.9885909 75.7230799 13.7930659 76.2564789 13.7930659 76.8034969 13.7930659 77.5376198 14.0151506 77.7251769 14.4615806 77.9122254 14.9080105 78.0060322 15.8613362 78.0060322 17.3204274L78.0060322 26.1693468zM66.3406485.0198548247L66.3406485 34.5475369 74.4154358 34.5475369 74.9743209 32.347598C75.7044316 33.2319814 76.5097008 33.8954102 77.3906935 34.3373193 78.2711212 34.7791719 79.5861681 34.9996179 80.6027286 34.9996179 82.0205675 34.9996179 83.2445766 34.6272162 84.2758863 33.883543 85.3066309 33.1393048 85.9621482 32.2594422 86.2418733 31.2456507 86.5209768 30.2312941 86.6606133 28.6902067 86.6606133 26.6197325L86.6606133 16.932768C86.6606133 14.8481098 86.6137099 13.4873461 86.5209768 12.8493469 86.4272265 12.2113477 86.1525308 11.5592209 85.6948554 10.8929666 85.2365583 10.2272774 84.5713777 9.70964476 83.6977313 9.34063368 82.8247065 8.97105751 81.7950921 8.78683453 80.6072494 8.78683453 79.5765049 8.78683453 78.2552983 8.99196626 77.3748707 9.39883911 76.4944431 9.80571196 75.6965767 10.4233675 74.9811021 11.2512408L74.9811021.0198548247 66.3406485.0198548247z"/>
  </g>
</svg>
