<svg xmlns="http://www.w3.org/2000/svg" width="178" height="82" viewBox="0 0 178 82">
  <g fill="#1FAE9B" fill-rule="evenodd" transform="translate(0 -2)">
    <g transform="translate(0 2.514)">
      <path fill-rule="nonzero" d="M63.3643271 77.255619C53.6339206 78.7942781 55.225264 73.4907276 55.1141836 67.4406857L54.5391252 55.5833143 52.0395659 67.0417524C51.5821289 69.2156038 51.0103159 71.2093486 54.0849336 72.8036571 56.2511682 74.6861029 53.8072076 77.3706057 51.4742939 77.0236343 44.3481701 77.2560716 45.3805986 72.5188724 45.9981486 69.1566857L46.4000371 64.3048686C46.6875663 60.9983314 47.3149445 58.9424 47.4848272 54.3198019L46.5242497 51.8153219C38.8393782 49.8183086 33.5400581 48.335299 27.5669786 45.1433295L23.289966 45.7129745C21.3556786 46.0010697 21.8751969 48.2829097 21.6465118 49.7659192L21.0224459 53.8123269 17.4871122 62.9986888 17.2093862 63.7974941C16.9774056 64.4293425 17.0329457 66.9370827 17.9510819 68.2433379L19.8233048 72.0671474C21.3034006 74.2376465 21.6987899 79.6001989 17.7191347 77.8814331L14.7588595 76.634096C12.6579515 75.7796579 10.9425628 69.9064541 10.2106702 65.6273912L10.2694834 59.6330827C8.44301429 59.0667147 7.70133531 69.8503017 8.44301429 72.0670636L10.2694834 77.6620198C10.8314765 79.4790103 8.73058531 80.1108503 7.25040587 80.1108503 3.77722036 80.1108503 2.23823858 76.5750941 1.49982176 73.6058065L.934566528 71.3894636C.0719370888 67.9650903.526145407 62.7696541 2.2937955 59.7441303L3.08776924 57.8714903C4.67894541 54.1589798 2.74469148 51.474477 2.2937955 49.5920312.813699706 43.5453417-.382170855 37.6684503 3.77389129 31.8512312L4.06469101 31.4518286C3.9437991 30.996768 2.74795363 30.0310057 2.00627466 27.7491238.411836341 22.6092533-1.01280291 14.1761714.986811107 14.1761714L2.29376204 14.1106961C5.65586718 14.1106961 4.68224101 28.0272675 8.67494475 27.1204485L37.5943186 27.4085437 42.6587639 26.0335646C44.5407733 25.5261231 46.1319494 24.3278732 47.7787494 23.2966808L51.0755279 21.2472866C54.8918247 25.0710961 58.1983896 27.4086275 63.66157 29.4023723 65.1449279 40.7459913 63.4949327 43.2636294 62.0703938 50.0438199L61.4953354 52.7839723C60.4792176 57.6325208 60.1328443 62.6542199 60.3647915 67.6174199L60.4758802 69.9549513C60.420335 72.3481323 61.779569 72.5183494 63.6615784 73.0912713 64.8476625 73.7198427 65.6971597 76.1130237 63.364246 77.2555989L63.3643271 77.255619zM69.4770935 7.95855238C71.0682696 9.0454781 73.061443 10.9835733 74.6558813 12.689181L76.6522332 14.8630324C77.9591841 16.2249371 79.9490117 16.0579886 81.7166785 16.4016914L82.3374823 16.5162758C84.2717697 17.5377463 83.6542197 19.5936777 83.0236294 21.1356053L82.6250115 22.1013425C80.7985423 26.4980739 75.3943316 26.8417768 71.5780349 24.7825768L69.8756947 23.8757577 69.3006363 23.8724841 68.11129 24.6712894 65.6640087 26.6093847C60.7106437 24.4388856 56.6721863 21.819838 53.4209106 18.3397314L60.8836213 8.97988373 63.3864428 5.3328285 63.8961579 4.13460373 64.4712163 2.81854278C64.9253828 1.34533897 66.804155-.0852896 68.1764326.481011352 69.4801214 1.05720183 70.3328807 3.56168183 69.9898532 4.88101135L69.6500459 6.36402088 69.4770935 7.95855238z"/>
    </g>
    <path d="M118.48629,24.3047619 L114.451262,24.3047619 L110.596907,17.908419 C110.295785,17.9385905 109.964551,17.9385905 109.633318,17.9385905 L104.634701,17.9385905 L104.634701,24.3047619 L101.081467,24.3047619 L101.081467,3.1847619 L109.633318,3.1847619 C115.023393,3.1847619 118.124944,5.80967619 118.124944,10.3957333 C118.124944,13.7749333 116.559112,16.1584762 113.758682,17.2446476 L118.48629,24.3047619 Z M104.634701,14.740419 L109.633318,14.740419 C112.88543,14.740419 114.752383,13.3525333 114.752383,10.4862476 C114.752383,7.71047619 112.88543,6.38293333 109.633318,6.38293333 L104.634701,6.38293333 L104.634701,14.740419 Z M125.984215,15.5550476 L125.984215,3.1847619 L122.430981,3.1847619 L122.430981,15.5550476 C122.430981,21.076419 125.923991,24.455619 131.615187,24.455619 C137.306383,24.455619 140.76928,21.076419 140.76928,15.5550476 L140.76928,3.1847619 L137.216047,3.1847619 L137.216047,15.5550476 C137.216047,19.1454476 135.078084,21.2574476 131.645299,21.2574476 C128.182402,21.2574476 125.984215,19.1152762 125.984215,15.5550476 Z M145.858234,3.1847619 L145.858234,24.3047619 L149.411467,24.3047619 L149.411467,15.6455619 L158.987131,15.6455619 L158.987131,12.4775619 L149.411467,12.4775619 L149.411467,6.38293333 L159.980832,6.38293333 L160.010944,3.1847619 L145.858234,3.1847619 Z M163.17272,3.1847619 L163.17272,24.3047619 L166.725953,24.3047619 L166.725953,15.6455619 L176.301617,15.6455619 L176.301617,12.4775619 L166.725953,12.4775619 L166.725953,6.38293333 L177.295318,6.38293333 L177.32543,3.1847619 L163.17272,3.1847619 Z M118.48629,53.6380952 L114.451262,53.6380952 L110.596907,47.2417524 C110.295785,47.2719238 109.964551,47.2719238 109.633318,47.2719238 L104.634701,47.2719238 L104.634701,53.6380952 L101.081467,53.6380952 L101.081467,32.5180952 L109.633318,32.5180952 C115.023393,32.5180952 118.124944,35.1430095 118.124944,39.7290667 C118.124944,43.1082667 116.559112,45.4918095 113.758682,46.577981 L118.48629,53.6380952 Z M104.634701,44.0737524 L109.633318,44.0737524 C112.88543,44.0737524 114.752383,42.6858667 114.752383,39.819581 C114.752383,37.0438095 112.88543,35.7162667 109.633318,35.7162667 L104.634701,35.7162667 L104.634701,44.0737524 Z M125.984215,44.888381 L125.984215,32.5180952 L122.430981,32.5180952 L122.430981,44.888381 C122.430981,50.4097524 125.923991,53.7889524 131.615187,53.7889524 C137.306383,53.7889524 140.76928,50.4097524 140.76928,44.888381 L140.76928,32.5180952 L137.216047,32.5180952 L137.216047,44.888381 C137.216047,48.478781 135.078084,50.590781 131.645299,50.590781 C128.182402,50.590781 125.984215,48.4486095 125.984215,44.888381 Z M145.858234,32.5180952 L145.858234,53.6380952 L149.411467,53.6380952 L149.411467,44.9788952 L158.987131,44.9788952 L158.987131,41.8108952 L149.411467,41.8108952 L149.411467,35.7162667 L159.980832,35.7162667 L160.010944,32.5180952 L145.858234,32.5180952 Z M163.17272,32.5180952 L163.17272,53.6380952 L166.725953,53.6380952 L166.725953,44.9788952 L176.301617,44.9788952 L176.301617,41.8108952 L166.725953,41.8108952 L166.725953,35.7162667 L177.295318,35.7162667 L177.32543,32.5180952 L163.17272,32.5180952 Z M115.384738,67.6141714 L117.462477,65.0194286 C115.41485,62.9979429 112.433748,61.7609143 109.452645,61.7609143 C103.21943,61.7609143 98.3713738,66.3771429 98.3713738,72.3812571 C98.3713738,78.4457143 103.159206,83.1222857 109.332196,83.1222857 C112.313299,83.1222857 115.354626,81.7645714 117.492589,79.6525714 L115.384738,77.2992 C113.788794,78.8379429 111.62072,79.8034286 109.512869,79.8034286 C105.297168,79.8034286 101.984832,76.5147429 101.984832,72.3510857 C101.984832,68.1874286 105.297168,64.9289143 109.512869,64.9289143 C111.650832,64.9289143 113.849019,65.9547429 115.384738,67.6141714 Z M121.106047,61.8514286 L121.106047,82.9714286 L133.783262,82.9714286 L133.783262,79.7430857 L124.65928,79.7430857 L124.65928,61.8514286 L121.106047,61.8514286 Z M140.317598,74.2217143 L140.317598,61.8514286 L136.764364,61.8514286 L136.764364,74.2217143 C136.764364,79.7430857 140.257374,83.1222857 145.94857,83.1222857 C151.639766,83.1222857 155.102664,79.7430857 155.102664,74.2217143 L155.102664,61.8514286 L151.54943,61.8514286 L151.54943,74.2217143 C151.54943,77.8121143 149.411467,79.9241143 145.978682,79.9241143 C142.515785,79.9241143 140.317598,77.7819429 140.317598,74.2217143 Z M169.34571,61.8514286 C173.711972,61.8514286 176.422065,63.8427429 176.422065,67.1314286 C176.422065,69.5149714 175.006794,71.2950857 172.718271,71.8381714 C175.548813,72.3209143 177.235093,74.3424 177.235093,77.1785143 C177.235093,80.7990857 174.314215,82.9714286 169.556495,82.9714286 L160.191617,82.9714286 L160.191617,61.8514286 L169.34571,61.8514286 Z M169.165037,70.6011429 C171.423449,70.6011429 172.778495,69.5451429 172.778495,67.7650286 C172.778495,65.9849143 171.423449,65.0194286 169.165037,65.0194286 L163.74485,65.0194286 L163.74485,70.6011429 L169.165037,70.6011429 Z M169.165037,79.8034286 C171.935355,79.8034286 173.591523,78.7172571 173.591523,76.7259429 C173.591523,74.8553143 171.935355,73.7389714 169.165037,73.7389714 L163.74485,73.7389714 L163.74485,79.8034286 L169.165037,79.8034286 Z"/>
  </g>
</svg>
