<svg xmlns="http://www.w3.org/2000/svg" width="2162" height="873" viewBox="0 0 2162 873">
  <g fill="#FFF">
    <polygon points=".762 .495 224.482 .495 224.482 861.714 .762 861.714"/>
    <path d="M701.605326.495236056L649.791231 402.82971 617.73866 184.043425C608.393517 113.822359 599.457136 52.6349309 590.929517.495236056L300.877709.495236056 300.877709 861.714278 496.829708 861.714278 497.53447 293.070091 580.005708 861.714278 719.576754 861.714278 797.81942 280.412567 798.524182 861.714278 993.855991 861.714278 993.855991.495236056 701.605326.495236056zM1343.71389 155.486473C1352.55302 160.603044 1358.2193 168.679616 1360.68597 179.631616 1363.15264 190.611806 1364.40711 215.560377 1364.40711 254.491425L1364.40711 588.365327C1364.40711 645.704756 1360.68597 680.815993 1353.25778 693.727231 1345.82818 706.66666 1326.02578 713.108184 1293.87454 713.108184L1293.87454 147.790473C1318.2438 147.790473 1334.87618 150.355806 1343.71389 155.486473zM1341.40227 861.714278C1394.99378 861.714278 1435.10601 858.797973 1461.74742 852.94704 1488.37473 847.111611 1510.72837 836.834773 1528.85484 822.148945 1546.95313 807.460297 1559.63884 787.108183 1566.92608 761.058774 1574.19922 735.054469 1578.52505 683.422203 1578.52505 606.23668L1578.52505 303.781063C1578.52505 222.324682 1575.33953 167.705635 1570.37942 139.909826 1565.4038 112.128111 1552.98589 86.8976355 1533.09751 64.2324928 1513.22323 41.5673501 1484.18703 25.2873502 1446.01713 15.3783979 1407.86273 5.46944555 1345.56037.493826532 1237.28075.493826532L1070.36494.493826532 1070.36494 861.714278 1341.40227 861.712868 1341.40227 861.714278zM1945.69332 652.738279C1945.69332 694.417898 1943.62132 720.747803 1939.49282 731.699803 1935.34882 742.665898 1917.33511 748.177136 1903.67682 748.177136 1890.35682 748.177136 1881.47682 742.891422 1876.96635 732.277707 1872.47138 721.678088 1870.24151 697.477974 1870.24151 659.646355L1870.24151 432.049138C1870.24151 392.807995 1872.21484 368.352757 1876.1756 358.612948 1880.12368 348.915424 1888.74997 344.038472 1902.05446 344.038472 1915.69865 344.038472 1934.00977 349.5779 1938.68798 360.713138 1943.35351 371.848376 1945.69332 395.627043 1945.69332 432.020947L1945.69332 652.738279zM1654.72532.495236056L1654.72532 861.714278 1856.13358 861.714278 1870.07378 806.841516C1888.28482 828.900564 1908.37054 845.448373 1930.34501 856.470849 1952.30539 867.491916 1985.10642 872.990468 2010.46235 872.990468 2045.8273 872.990468 2076.35758 863.701706 2102.08139 845.152373 2127.79111 826.588945 2144.14158 804.642659 2151.11873 779.355802 2158.08036 754.05485 2161.5633 715.615726 2161.5633 663.972184L2161.5633 422.351614C2161.5633 370.354281 2160.39339 336.412948 2158.08036 320.499424 2155.74196 304.585901 2148.89027 288.319996 2137.47454 271.70171 2126.0433 255.09752 2109.45179 242.186282 2087.66055 232.982092 2065.88482 223.763806 2040.2033 219.168758 2010.57511 219.168758 1984.86539 219.168758 1951.91073 224.28533 1929.95035 234.433901 1907.98997 244.582473 1888.0889 259.988568 1870.24292 280.638091L1870.24292.495236056 1654.72532.495236056z"/>
  </g>
</svg>
